<svg height="385" viewBox="0 58.4203 300 385" width="300" xmlns="http://www.w3.org/2000/svg"><path d="m300 438.42c0 2.762-2.239 5-5 5h-290c-2.76142 0-4.99999911-2.238-4.99999952-5v-374.9997c.00000041-2.7614 2.23857952-5 4.99999952-5h290c2.761 0 5 2.2386 5 5z" fill="#efefef"/><path d="m300 438.42c0 2.762-2.239 5-5 5h-290c-2.76142 0-4.99999911-2.238-4.99999952-5v-374.9997c.00000041-2.7614 2.23857952-5 4.99999952-5h290c2.761 0 5 2.2386 5 5z" fill="#dedede"/><path d="m16.9126 340.934v-264.593h54.8633v15.777h-34.4949v232.71h34.4949v16.106z"/><path d="m229.397 341.048v-16.106h34.495v-232.71h-34.495v-15.777h54.863v264.593z"/><path d="m173.451 243.055c3.087 0 5.589 2.502 5.589 5.588s-2.502 5.589-5.589 5.589c-3.086 0-5.588-2.503-5.588-5.589s2.502-5.588 5.588-5.588z" fill-rule="evenodd"/><path d="m173.451 243.512c2.833-.001 5.133 2.299 5.131 5.131.002 2.832-2.298 5.133-5.131 5.131-2.832.002-5.132-2.299-5.131-5.131-.001-2.832 2.299-5.132 5.131-5.131zm0-.915c-3.34.002-6.044 2.706-6.046 6.046.002 3.34 2.706 6.044 6.046 6.046 3.341-.002 6.045-2.706 6.046-6.046-.001-3.34-2.705-6.044-6.046-6.046z"/><path d="m196.339 242.991c3.087 0 5.589 2.502 5.589 5.589 0 3.086-2.502 5.588-5.589 5.588-3.086 0-5.588-2.502-5.588-5.588 0-3.087 2.502-5.589 5.588-5.589z" fill-rule="evenodd"/><path d="m196.339 243.448c2.833-.001 5.133 2.299 5.131 5.132.002 2.832-2.298 5.132-5.131 5.131-2.832.001-5.132-2.299-5.131-5.131-.001-2.833 2.299-5.133 5.131-5.132zm0-.914c-3.34.001-6.044 2.705-6.046 6.046.002 3.34 2.706 6.044 6.046 6.045 3.341-.001 6.045-2.705 6.046-6.045-.001-3.341-2.705-6.045-6.046-6.046z"/><path d="m96.4468 150.011c3.0864 0 5.5882 2.503 5.5882 5.589s-2.5018 5.588-5.5882 5.588-5.5884-2.502-5.5884-5.588 2.502-5.589 5.5884-5.589z" fill-rule="evenodd"/><path d="m96.4468 150.469c2.8325-.002 5.1322 2.299 5.1312 5.131.001 2.832-2.2987 5.132-5.1312 5.131-2.8324.001-5.1325-2.299-5.1312-5.131-.0013-2.832 2.2988-5.133 5.1312-5.131zm0-.915c-3.3404.002-6.0444 2.706-6.0458 6.046.0014 3.34 2.7054 6.044 6.0458 6.046 3.3404-.002 6.0442-2.706 6.0462-6.046-.002-3.34-2.7058-6.044-6.0462-6.046z"/><path d="m119.335 149.948c3.086 0 5.588 2.502 5.588 5.589 0 3.086-2.502 5.588-5.588 5.588-3.087 0-5.589-2.502-5.589-5.588 0-3.087 2.502-5.589 5.589-5.589z" fill-rule="evenodd"/><path d="m119.335 150.405c2.832-.001 5.132 2.299 5.131 5.132.001 2.832-2.299 5.132-5.131 5.131-2.833.001-5.133-2.299-5.131-5.131-.002-2.833 2.298-5.133 5.131-5.132zm0-.914c-3.341.001-6.045 2.705-6.046 6.046.001 3.34 2.705 6.044 6.046 6.045 3.34-.001 6.044-2.705 6.046-6.045-.002-3.341-2.706-6.045-6.046-6.046z"/><path d="m168.396 275.429c5.215 2.963 11.252 5.322 17.88 5.492.065.002.057.002.12.001 6.749-.028 12.86-2.476 18.065-5.523 2.162-1.245 2.905-4.211 1.627-6.26-1.167-2.114-4.119-2.91-6.26-1.627-4.333 2.555-9.003 4.268-13.452 4.264.04 0 .08.001.12.001-4.516-.098-9.198-1.795-13.573-4.295-2.156-1.254-5.098-.42-6.237 1.71-1.251 2.065-.469 5.021 1.71 6.237z"/><path d="m107.427 211.076c-7.5739 0-14.3841-1.644-20.4308-4.931s-10.8107-8.187-14.2922-14.701c-3.4814-6.514-5.2222-14.458-5.2222-23.833 0-9.618 1.8018-17.775 5.4054-24.471s8.4899-11.81 14.6587-15.341c6.1689-3.53 13.0401-5.296 20.6141-5.296 7.573 0 14.353 1.644 20.339 4.931 5.985 3.287 10.719 8.127 14.2 14.519s5.222 14.336 5.222 23.832c0 9.618-1.771 17.806-5.314 24.563-3.542 6.757-8.367 11.901-14.475 15.432s-13.01 5.296-20.705 5.296zm.549-10.044c4.642 0 8.979-1.066 13.01-3.196 4.031-2.131 7.299-5.722 9.803-10.775s3.756-11.84 3.756-20.363c0-8.035-1.282-14.579-3.848-19.632-2.565-5.052-5.894-8.735-9.986-11.049-4.092-2.313-8.459-3.469-13.101-3.469-4.52 0-8.8258 1.095-12.918 3.287-4.0922 2.191-7.421 5.783-9.9862 10.775-2.5653 4.991-3.848 11.688-3.848 20.088 0 8.158 1.3133 14.762 3.9396 19.815s6.0162 8.736 10.1694 11.049c4.1533 2.313 8.4902 3.47 13.0092 3.47z"/><path d="m107.849 195.21c-2.321 0-4.367-.791-6.138-2.373-1.7715-1.582-2.6571-3.651-2.6571-6.207 0-2.677.8551-4.837 2.5651-6.48s3.726-2.464 6.047-2.464 4.336.791 6.046 2.373c1.711 1.582 2.566 3.772 2.566 6.571 0 2.556-.855 4.625-2.566 6.207-1.71 1.582-3.664 2.373-5.863 2.373zm-6.596 107.882v-85.795h12.826v85.795z"/><path d="m107.849 194.71c-2.207-.004-4.112-.739-5.805-2.246-1.665-1.496-2.4833-3.391-2.4901-5.834.0053-2.574.8061-4.569 2.4111-6.119 1.633-1.562 3.498-2.32 5.701-2.325 2.207.004 4.077.738 5.707 2.24 1.594 1.482 2.4 3.502 2.405 6.204-.006 2.447-.8 4.347-2.405 5.84-1.636 1.507-3.446 2.236-5.524 2.24zm0 1c2.32.004 4.418-.849 6.203-2.506 1.815-1.671 2.732-3.909 2.726-6.574.005-2.895-.9-5.256-2.726-6.938-1.79-1.662-3.952-2.51-6.386-2.506-2.44-.005-4.605.879-6.393 2.604-1.8146 1.735-2.7245 4.06-2.7191 6.84-.0069 2.669.9463 4.912 2.8241 6.58 1.849 1.657 4.036 2.504 6.471 2.5zm-6.096 106.882c0-28.265 0-56.53 0-84.795 3.942.001 7.884.001 11.826 0v84.795c-3.942 0-7.884 0-11.826 0zm-.5 1h12.826.5c0-.166 0-.333 0-.5 0-28.598 0-57.196 0-85.795 0-.166 0-.333 0-.5-.167 0-.333 0-.5 0-4.275.001-8.551.001-12.826 0-.167 0-.334 0-.5 0v.5 85.795.5z"/><path d="m179.931 207.367v-85.795h12.826v85.795z"/><path d="m180.431 206.867c0-28.265 0-56.53 0-84.795h11.826v84.795c-3.942 0-7.884 0-11.826 0zm-.5 1h12.826.5c0-.167 0-.334 0-.5 0-28.599 0-57.197 0-85.795 0-.167 0-.333 0-.5-.167 0-.333 0-.5 0-4.275 0-8.551 0-12.826 0-.167 0-.334 0-.5 0v.5 85.795.5z"/><path d="m185.829 304.553c-7.574 0-14.384-1.643-20.431-4.929s-10.811-8.184-14.292-14.695c-3.482-6.51-5.222-14.451-5.222-23.821 0-9.614 1.801-17.768 5.405-24.461s8.49-11.804 14.659-15.334c6.169-3.529 13.04-5.293 20.613-5.293 7.574 0 14.354 1.643 20.339 4.928 5.986 3.286 10.72 8.123 14.201 14.512s5.222 14.33 5.222 23.822c0 9.614-1.771 17.798-5.314 24.552-3.542 6.754-8.367 11.896-14.475 15.425s-13.01 5.294-20.705 5.294zm.549-10.04c4.642 0 8.979-1.065 13.01-3.195 4.031-2.129 7.299-5.719 9.803-10.77 2.504-5.05 3.756-11.835 3.756-20.353 0-8.032-1.283-14.573-3.848-19.623-2.565-5.051-5.894-8.732-9.986-11.044s-8.459-3.469-13.101-3.469c-4.52 0-8.826 1.096-12.918 3.286-4.092 2.191-7.421 5.781-9.986 10.77-2.566 4.99-3.848 11.683-3.848 20.08 0 8.153 1.313 14.755 3.939 19.806 2.627 5.05 6.016 8.731 10.17 11.043 4.153 2.313 8.49 3.469 13.009 3.469z"/><path d="m185.829 304.053c-7.502-.001-14.223-1.625-20.192-4.868-5.959-3.24-10.647-8.056-14.09-14.491-3.434-6.422-5.163-14.277-5.163-23.586 0-9.553 1.79-17.62 5.345-24.224 3.566-6.621 8.381-11.654 14.467-15.137 6.092-3.484 12.869-5.226 20.365-5.227 7.502 0 14.191 1.625 20.099 4.867 5.9 3.24 10.559 7.998 14.002 14.313 3.431 6.296 5.161 14.15 5.161 23.582 0 9.554-1.76 17.653-5.256 24.32-3.506 6.681-8.26 11.742-14.283 15.224-6.029 3.482-12.835 5.226-20.455 5.227zm0 1c7.771.001 14.768-1.785 20.955-5.361 6.193-3.577 11.089-8.799 14.668-15.626 3.589-6.841 5.371-15.11 5.371-24.784 0-9.552-1.751-17.579-5.283-24.061-3.52-6.463-8.328-11.38-14.399-14.711-6.064-3.33-12.934-4.991-20.58-4.99-7.65-.001-14.616 1.785-20.862 5.359-6.251 3.576-11.209 8.765-14.85 15.531-3.652 6.782-5.465 15.022-5.465 24.698 0 9.431 1.752 17.457 5.281 24.057 3.52 6.586 8.36 11.567 14.494 14.898 6.124 3.329 13.024 4.99 20.67 4.99zm.549-10.04c4.719.001 9.142-1.085 13.243-3.253 4.141-2.186 7.481-5.87 10.018-10.99 2.553-5.152 3.807-12.008 3.808-20.575-.001-8.084-1.289-14.702-3.902-19.85-2.598-5.117-5.995-8.885-10.186-11.253-4.162-2.352-8.622-3.533-13.347-3.533-4.601 0-8.995 1.118-13.154 3.345-4.196 2.245-7.596 5.925-10.195 10.983-2.617 5.093-3.902 11.861-3.903 20.308.001 8.206 1.319 14.886 3.996 20.036 2.66 5.118 6.118 8.884 10.369 11.25 4.22 2.351 8.648 3.533 13.253 3.532zm0-1c-4.434-.001-8.679-1.131-12.766-3.405-4.055-2.259-7.377-5.855-9.969-10.838-2.576-4.951-3.884-11.474-3.883-19.575-.001-8.347 1.278-14.965 3.792-19.851 2.532-4.921 5.789-8.422 9.778-10.558 4.025-2.154 8.243-3.226 12.682-3.227 4.559.001 8.833 1.133 12.855 3.404 3.993 2.257 7.254 5.852 9.786 10.835 2.517 4.953 3.795 11.417 3.794 19.397.001 8.47-1.249 15.183-3.704 20.131-2.471 4.982-5.667 8.477-9.589 10.55-3.961 2.092-8.21 3.136-12.776 3.137z"/><text font-family="Arial" font-size="65.5" font-weight="700" transform="translate(14.6917 349.511)"><tspan x="0" y="59">LowType</tspan></text></svg>